<?xml version="1.0" encoding="utf-8"?>
<!-- Generator: Adobe Illustrator 22.1.0, SVG Export Plug-In . SVG Version: 6.00 Build 0)  -->
<svg version="1.1" id="Ñëîé_1" xmlns="http://www.w3.org/2000/svg" xmlns:xlink="http://www.w3.org/1999/xlink" x="0px" y="0px"
	 viewBox="0 0 1131.5 650" style="enable-background:new 0 0 1131.5 650;" width="1131.5px" height="650px" xml:space="preserve">
<style type="text/css">
	.st0{fill:#C1F6EE;}
	.st1{fill:#009BA0;}
	.st2{fill:#4BEBD0;}
	.st3{fill:#FFFFFF;}
	.st4{fill:#E7FA19;}
	.st5{fill:#046180;}
	.st6{fill:none;stroke:#00617F;stroke-width:2.1392;stroke-miterlimit:10;stroke-dasharray:7.0594;}
	.st7{fill:none;stroke:#4BEBD0;stroke-width:2.1392;stroke-miterlimit:10;stroke-dasharray:7.0594;}
	.st8{fill:#00617F;}
	.st9{fill:none;stroke:#009BA0;stroke-width:2.1392;stroke-miterlimit:10;stroke-dasharray:7.0594;}
	.st10{fill:#9FEDE5;}
</style>
<g>
	<path class="st0" d="M1131.7,455.2c-52.3-18.7-99.8-36-103-37.3c-6.9-2.9-13.2-9.3-18.3-15.9c-5.2-6.6-15-13.6-26.3-16.1
		c-11.2-2.5-20.7-3.2-28.8-7.2c-10.4-5.2-18-10.2-20.8-8.2c-2.8,2-4.4,5.1,2.5,10.1c6.9,5,23.4,16.2,29.5,20.1c3.4,2.2,8,4,7,6
		c-1,2-5.9,0.6-14.8-1.2c-8.9-1.8-29.2-9.9-42.1-19c-12.8-9.1-23.7-17-28-20.2c-6.3-4.8-9.3-3.9-10.9-1.3c-1.5,2.6,1,5.2,6.9,11.7
		c5.9,6.5,25.8,22,34.5,27.7c8.7,5.7,10.6,7.1,12,8.1c1.9,1.4,1.1,2.9,0.6,3.4c-1.3,1.1-4.6-0.3-10.1-3.5
		c-6.4-3.8-22.2-13.7-29.7-17.9c-11.4-6.3-17.7-10.4-19.5-12.1c-1.9-1.6-7.9-2-8.6,1.2c-0.7,3.2,1.8,5.5,8.6,10.9
		c6.3,5,21.2,14.4,30.3,20.4c8.1,5.4,17.9,10.8,19.9,12.9c2.1,2.2,2,3.3-0.3,3.8c-2.2,0.4-9.4-3.7-18.9-9.2
		c-9.5-5.4-37.3-21-39.9-22.1c-2.6-1.1-9.2,4.4-2.7,9c2.7,1.9,0.7,0.4,14.2,9.5c14.5,9.8,22.3,13,30.2,17.5
		c8.4,4.8,12.9,7.6,12.4,8.7c-0.6,1.3-0.5,2.5-6.1,0.4c-5.6-2.1-13.5-5.7-23.9-9.6c-10.2-3.9-21.3-8.9-22.3-3
		c-0.6,3.2,2.9,6.6,11.3,9.5c10.4,3.6,37.3,24.9,71.3,28.7c34,3.9,68.5,1.8,88.7,10.8c4.8,2.1,47.4,19.6,94.9,38.9V455.2z"/>
	<g>
		<path class="st1" d="M511.8,460.6c8.8,2.6,31.4,11.6,37.3,14.1c7.2,2.9,12.4,3.9,11.1,6.1c-1.3,2.1-7.1,2.3-14.4,0.9
			c-7.3-1.4-17.7-1.6-32.5-4.1c-9.1-1.6-11.7,5-8.4,7.4c3.3,2.4,21.7,8.6,31,11.3c9.2,2.7,31.2,8.4,39.7,13.5c3.3,2,17,10,23.3,13
			c40.1,19.8,78.1,16.4,109.2,46.7c7.9,7.7,52.6,44.5,94.9,79.6H970c-61.2-37.3-137.5-83.8-150.6-92.6c-31.9-21.3-90-55.1-97.2-61.6
			c-7.2-6.5-12-17.1-15.4-27.3c-3.4-10.2-9.7-24.5-22.4-32.5c-12.7-8-28.3-13.7-36.7-21.7c-8.4-8.1-14.5-16.9-18.9-15.7
			c-4.4,1.2-8.8,2.5-2.6,11.5c6.2,9.1,26.7,33.8,29.7,38c3,4.3,5.5,7.6,3.4,9.5c-2.1,1.9-7.5-1.9-17.7-8c-1.6-0.9-60-27.8-78.1-34.3
			c-18-6.5-24.8-7.6-25.5-4.3c-0.7,3.3,2.7,6.6,8.1,10.1c7.5,4.8,31.1,18.7,35.8,21.6c4.8,2.9,8.9,4.9,6.2,7.2
			c-2.6,2.4-23.4-8.4-33-12.1c-9.5-3.7-24.9-9.1-33.5-12c-12.3-4.2-12.3,4.3-10.1,6.4c2.2,2.1,26.8,14.3,40.8,20.2
			c14,6,18,6.6,18.9,8.7c0.9,2.1-0.7,2.7-2.4,3c-1.7,0.2-14.8-2.7-21.8-4.7c-7.1-2-23.8-7-32.7-8.8c-9-1.8-11.9,1.3-11.6,3.9
			C503.2,456.4,504.6,458.5,511.8,460.6z"/>
		<path class="st2" d="M577.4,420.7c2.8,8.6,13.8,12.6,24.6,9.1c10.8-3.5,17.3-13.3,14.5-21.9c-2.8-8.6-13.8-12.6-24.6-9.1
			C581.1,402.3,574.6,412.1,577.4,420.7z"/>
		<path class="st3" d="M592.8,478.5c3.8,5.4,12.5,5.8,19.6,0.9c7-4.9,9.7-13.3,5.9-18.7c-3.8-5.4-12.5-5.8-19.5-0.9
			C591.6,464.8,589,473.1,592.8,478.5z"/>
		<path class="st4" d="M605.3,488.3c2.3,7.1,12.7,10.1,23.1,6.7c10.4-3.4,17-11.9,14.6-19.1c-2.3-7.1-12.7-10.1-23.1-6.7
			C609.5,472.6,602.9,481.2,605.3,488.3z"/>
	</g>
	<g>
		<path class="st0" d="M133,649.1l39.6-47.4l13.1-15.7c0,0,15.4-8.3,26.6-11.4c11.2-3.2,30.5-9,36.2-11c5.7-2,14.7-9.5,22.7-18.2
			c8-8.6,15.5-15.9,17.5-18c2-2.2,4.3-6.3,0.1-9.7c-4.2-3.4-6.7,0.5-14.3,5.4c-6.7,4.3-13.2,9.4-21.8,10.9
			c-6.7,1.2-14.6-1.6-17.8-2.5c-3.2-0.9-5.2-1.9-4-8.8c1.5-8.8,10.9-21,19.1-26.9c8.2-5.9,28.2-6.8,33.9-4.8c5.7,1.9,8.3,5,8,9.5
			c-0.3,4.5-3,9.6-2.1,11.8c0.9,2.2,9,3.7,12.3-3.1c3.4-7.1,6.4-19.3,2.3-25.6c-4.1-6.3-7.8-9.2-19-9.8c-7.8-0.4-12.2-0.8-15.1-0.9
			c-2.9,0-1.7-1.5,1.4-4.1c3.1-2.6,30.3-23.7,39.5-31c20.4-16.1,25.7-12.5,25.3-17.9c-0.4-5.4-7.7-4.6-21.1-0.1
			c-9.8,3.3-27.9,14.4-40.7,22.6c-11.9,7.6-14.6,11-16.3,8.6c-1.7-2.3,0.9-2.5,5.3-7.2c4.5-4.6,25-25,32.9-31.9
			c8.2-7.1,19.5-14.8,13.8-18.1c-4.9-2.8-31.2,15-42.6,25.7c-11.4,10.8-24.1,21.9-24.1,21.9s-6.1,3.2-3.4-2.9
			c4.4-9.9,14.6-22.9,19.1-31.2c9.1-16.6,8.7-23.8,6.1-27.9c-0.9-1.5-4.1-1.2-5.4,2.8c-1.1,3.5-3.1,8-8.9,16.1
			c-11.2,16-30.1,35.3-34.1,41.5c-4.1,6.2-6.7,3.3-20.7,26.1c-11.6,18.9-56.6,69.8-70.8,84c-16.7,16.7-38.4,36.5-57.1,52.6
			c-22,18.9-39.7,36.3-49.9,46.5H133z"/>
		<path class="st5" d="M252.6,548.4l26.8-50.9c0,0,36.2,22,62.3-0.9c43.8-38.5,97.8-31.9,97.8-31.9l16.5,77.5
			c0,0-51.3-9.1-79.8,11.8c-22.3,16.4-49.4,23.9-83.9,14.9C272.1,563.6,252.6,548.4,252.6,548.4z"/>
	</g>
	<path class="st6" d="M569.3,396c0,0-78.8-60.5-106.9,14.4c-11.1,29.6,23.1,30.9,19.1,2.9c-2.4-16.2-72-48.5-111.1,4.3
		c-39.1,52.8-24.7,96.7-24.7,96.7"/>
	<path class="st7" d="M386,199c0,0,85.3,114.3,144.7,52.6c23.5-24.4-33.4-55.6-50.2-30.3c-22.8,34.4,57.6,97.1,118.7,62.2
		c61.1-34.9,75-147.8,182.1-106.1"/>
	<g>
		<path class="st8" d="M1131.7,43.3l-82.9-12.1c0,0-98.9,51.4-111.9,60.1c-32.4,21.8-58.1,33.1-65.9,31.6
			c-7.8-1.4-18.6-1.3-28.6,1.9c-10.1,3.2-78.3,15.5-82.7,17.1c-4.4,1.7-6.3,5.2-4,8.4c2.3,3.2,13.9,2.6,22.5,2.2
			c19.6-0.9,33.5,1.7,38.5,2.7c3.7,0.8,2.3,4.5-0.2,7.9c-2.6,3.4-38.2,28.4-49.8,36.7c-11.6,8.2-53.1,35.4-57.2,39.1
			c-4.1,3.8-1.4,8.3,1.7,7.5c3.2-0.8,15.4-7.2,23-11.3c7.6-4.1,18.7-11.6,21.2-11.4c2.5,0.2,1.5,2.7,1.5,2.7s-45.6,35.6-48.4,39
			c-2.8,3.4,0.6,7,6.2,5.2c3-1,30.2-16.7,41.6-23.8c9.7-6.1,11.4-6.7,12.9-5c1.7,2.1-0.1,4.5-0.4,4.8c-2,2.7-21.7,20.5-26.2,25.5
			c-4.5,5-9.9,9.8-8,12.2c1.9,2.4,5.7,1.4,8.7-1c3-2.4,30-21.1,37.7-27.7c12.3-10.5,12.9-3.6,12.9-3.6s-0.8,3.7-21.9,26
			c-7.6,8-14.3,13.7-9.5,16c3.7,1.8,12.1-5.8,38.8-24.6c26.6-18.8,56.4-45.4,75.8-65.5c19.3-20.1,65.1-41,118.5-60.2
			c44.6-16,114.2-74.5,136-93.5V43.3z"/>
		<polygon class="st0" points="1131.7,-0.6 1062.6,-0.6 890.4,117.9 926.8,184.9 1131.7,77.4 		"/>
		<path class="st1" d="M737.3,209.6c0,0,14.7,21.9,14.7,40.1c16.9,1.6,31.8-22.3,59.7-10c38.6,17,68,1.1,68,1.1l-11-50.1
			c0,0-26.4,12.6-48.7,3.4c-17.4-7.3-37.3-10.7-58.9,0.8C748.5,201.6,737.3,209.6,737.3,209.6z"/>
		<path class="st4" d="M784.8,215.7c3.3,5.4,14.5,4.7,25.1-1.7c10.6-6.4,16.5-16,13.2-21.4c-3.3-5.4-14.5-4.6-25.1,1.7
			C787.4,200.7,781.5,210.3,784.8,215.7z"/>
		<path class="st2" d="M797.5,251.7c-11.6,0.2-21.2-4.2-21.3-9.7c-0.1-5.6,9.3-10.3,20.9-10.5c11.6-0.2,21.1,4.2,21.2,9.8
			C818.5,246.8,809.2,251.5,797.5,251.7z"/>
	</g>
	<g>
		<path class="st1" d="M365,159.5c8.5,0.2,15.3,3.1,15.3,6.5c-0.1,3.4-7,6.1-15.5,5.9c-8.5-0.2-15.3-3.1-15.3-6.5
			C349.6,161.9,356.5,159.3,365,159.5z"/>
		<path class="st2" d="M306.3,155.1c0.2-0.5,0.7-0.9,1.3-1.1c0.2-0.2,0.4-0.3,0.6-0.5l-54.6-66.6l-33,37l80.3,38.6
			C302.2,159.7,304,157.2,306.3,155.1C306.2,155.1,306.2,155.1,306.3,155.1z"/>
		<path class="st2" d="M379.6,176.5l-23.8-54.9c-1.9-4.5-5.8-7.8-10.5-9.1L252,87.1l45.5,61.8c0,0,38.4-15.8,43.7-12.4
			c5.3,3.4,20.7,38.2,20.7,38.2l8.4,20.8C385,184.1,379.6,176.5,379.6,176.5z"/>
		<polygon class="st2" points="95.9,-0.6 220.5,123.9 258.4,90.3 183.6,-0.6 		"/>
		<g>
			<path class="st1" d="M334,140.3l98,49c2.3,1.1,3.3,4,2.2,6.4L407,255.8c-1.1,2.4-3.8,3.4-6.1,2.3l-98-49c-2.3-1.1-3.3-4-2.2-6.4
				l27.2-60.1C329,140.2,331.7,139.2,334,140.3z"/>
			<polygon class="st8" points="425.8,214.2 319.5,161.1 326.6,145.5 432.8,198.6 			"/>
			<polygon class="st0" points="413.5,229.6 315.9,180.9 321.7,168 419.2,216.7 			"/>
		</g>
		<path class="st2" d="M359.4,208.6l-62.1-73.3l-76.8-11.4c0,0,16.2,37.7,48.6,44.8c11.8,2.6,24.4,4.1,30.9,9.5l30.3,25.2
			C330.3,203.3,345.3,221.6,359.4,208.6z"/>
		<path class="st2" d="M253.5,86.9c31.8,13,67.7,8.2,77.3,8.7l89.2,8.8c0,0,7.1,6.9-5.2,7.3c0,0-40.3,2.5-67.7,0.4
			c-2.7-0.2-22.4,2.7-22.4,2.7L253.5,86.9z"/>
		<path class="st2" d="M264.6,98c8.4,3,59.8,6.2,59.8,6.2l86.4,24c0,0,5.8,8-6.4,6.3c0,0-40.1-4.5-66.8-11.3
			c-2.6-0.7-22.5-1.2-22.5-1.2L264.6,98z"/>
	</g>
	<g>
		<path class="st1" d="M737,386.5c-12.1,1.6-23.1-2.6-24.4-9.4c-1.4-6.8,7.4-13.6,19.5-15.2c12.1-1.6,23.1,2.6,24.4,9.5
			C757.9,378.1,749.2,384.9,737,386.5z"/>
		<path class="st9" d="M943,435c0,0,11.3-74.3-67.7-99.8c-78.9-25.6-122,22.4-122,22.4"/>
	</g>
	<path class="st0" d="M632.4,217.1c0.5,6.6,11.2,11.2,24.1,10.3c12.8-0.9,22.9-7,22.4-13.6c-0.5-6.6-11.2-11.2-24.1-10.3
		C641.9,204.5,631.9,210.5,632.4,217.1z"/>
	<path class="st2" d="M902.5,362c-10.5-1.5-18.4-7.4-17.6-13.3c0.8-5.9,10-9.5,20.6-8.1c10.5,1.5,18.4,7.4,17.6,13.4
		C922.3,359.9,913.1,363.5,902.5,362z"/>
	<g>
		<g>
			<path class="st2" d="M1000.8,383.3L897,415.6c-2.4,0.8-3.7,3.5-2.9,6.1l20.6,65.1c0.8,2.6,3.5,4.1,5.9,3.3l103.8-32.4
				c2.4-0.8,3.7-3.5,2.9-6.1l-20.6-65.1C1005.9,384,1003.2,382.5,1000.8,383.3z"/>
		</g>
		<g>
			<polygon class="st10" points="949.9,417.2 999.2,401.8 996.1,392 946.8,407.4 			"/>
		</g>
		<g>
			<g>
				<polygon class="st0" points="923.8,476.9 965.6,463.9 963.9,458.5 922.1,471.5 				"/>
			</g>
			<g>
				<polygon class="st0" points="919.4,462.9 937.9,457.1 936.2,451.8 917.7,457.5 				"/>
			</g>
			<g>
				<polygon class="st0" points="943.3,455.4 961.8,449.7 960.1,444.3 941.6,450.1 				"/>
			</g>
			<g>
				<polygon class="st0" points="967.3,448 985.7,442.2 984,436.8 965.6,442.6 				"/>
			</g>
			<g>
				<polygon class="st0" points="991.2,440.5 1009.7,434.8 1008,429.4 989.5,435.1 				"/>
			</g>
		</g>
		<g>
			<polygon class="st10" points="993,461.6 1015.9,454.4 1012.4,443.4 989.5,450.5 			"/>
		</g>
		<circle class="st8" cx="916.5" cy="430.4" r="10.1"/>
		<circle class="st8" cx="931.1" cy="427.3" r="10.1"/>
	</g>
</g>
</svg>
